<svg width="77" height="77" viewBox="0 0 77 77" fill="none" xmlns="http://www.w3.org/2000/svg">
<path d="M31.2491 15.4962L25.6986 20.4371C22.5866 23.1962 22.4582 25.1212 24.9286 28.2333L34.7141 40.6496C36.7674 43.2483 40.1361 43.2483 42.1895 40.6496L51.9749 28.2333C54.4453 25.1212 54.4453 23.1 51.2049 20.4371L45.6545 15.4962M38.4678 41.3233L38.4678 33.2062M42.5103 4.81249L34.4253 4.81249C31.3453 4.81249 29.3561 6.99415 29.9336 9.65707L31.2491 15.4642L45.6866 15.4642L47.002 9.65707C47.5795 7.15457 45.3978 4.81249 42.5103 4.81249Z" stroke="white" stroke-opacity="0.5" stroke-width="1.5" stroke-linecap="round" stroke-linejoin="round"/>
<path d="M43.248 65.5783C55.4718 64.1346 64.9685 53.7717 64.9685 41.1629M12.031 41.1629C12.031 53.7396 21.4635 64.0704 33.623 65.5783M36.8314 60.9583L40.0397 60.9583C41.8043 60.9583 43.248 62.4021 43.248 64.1667L43.248 67.375C43.248 69.1396 41.8043 70.5833 40.0397 70.5833L36.8314 70.5833C35.0668 70.5833 33.623 69.1396 33.623 67.375L33.623 64.1667C33.623 62.4021 35.0668 60.9583 36.8314 60.9583ZM66.5085 31.5379L63.3001 31.5379C61.5355 31.5379 60.0918 32.9817 60.0918 34.7463L60.0918 37.9546C60.0918 39.7192 61.5355 41.1629 63.3001 41.1629L66.5085 41.1629C68.273 41.1629 69.7168 39.7192 69.7168 37.9546L69.7168 34.7463C69.7168 32.9817 68.273 31.5379 66.5085 31.5379ZM10.491 31.5379L13.6993 31.5379C15.4639 31.5379 16.9076 32.9817 16.9076 34.7463L16.9076 37.9546C16.9076 39.7192 15.4639 41.1629 13.6993 41.1629L10.491 41.1629C8.72639 41.1629 7.28263 39.7192 7.28263 37.9546L7.28263 34.7463C7.28263 32.9817 8.72639 31.5379 10.491 31.5379Z" stroke="white" stroke-opacity="0.5" stroke-width="1.5" stroke-linecap="round" stroke-linejoin="round"/>
</svg>
