<svg width="77" height="77" viewBox="0 0 77 77" fill="none" xmlns="http://www.w3.org/2000/svg">
<path d="M65.7712 36.2542V22.5867C65.7712 9.65707 62.7553 6.41666 50.6278 6.41666H26.3728C14.2453 6.41666 11.2295 9.65707 11.2295 22.5867V58.7125C11.2295 67.2467 15.9137 69.2679 21.5924 63.1721L21.6245 63.14C24.2553 60.3487 28.2657 60.5733 30.5437 63.6212L33.7841 67.9525M25.667 22.4583H51.3337M28.8753 35.2917H48.1253" stroke="white" stroke-opacity="0.5" stroke-width="1.5" stroke-linecap="round" stroke-linejoin="round"/>
<path d="M58.4267 47.3871L47.0692 58.7446C46.62 59.1938 46.2029 60.0279 46.1067 60.6375L45.4971 64.9688C45.2725 66.5408 46.3633 67.6317 47.9354 67.4071L52.2667 66.7975C52.8762 66.7013 53.7425 66.2842 54.1596 65.835L65.5171 54.4775C67.4742 52.5204 68.4046 50.2425 65.5171 47.355C62.6617 44.4996 60.3837 45.43 58.4267 47.3871Z" stroke="white" stroke-opacity="0.5" stroke-width="1.5" stroke-miterlimit="10" stroke-linecap="round" stroke-linejoin="round"/>
<path d="M56.7871 49.0233C57.7496 52.4883 60.4446 55.1833 63.9096 56.1458" stroke="white" stroke-opacity="0.5" stroke-width="1.5" stroke-miterlimit="10" stroke-linecap="round" stroke-linejoin="round"/>
</svg>
