<svg width="197" height="40" viewBox="0 0 197 40" fill="none" xmlns="http://www.w3.org/2000/svg">
<path d="M13.72 13.76C13.6667 14.4267 13.44 15.2 13.04 16.08C12.0267 15.9733 11.0667 15.92 10.16 15.92H9.44C8.21333 21.8667 7.6 25.5733 7.6 27.04C7.6 27.8133 7.76 28.2 8.08 28.2C8.42667 28.2 9.32 27.8667 10.76 27.2L11.48 28.52C9.10667 30.4933 6.90667 31.48 4.88 31.48C3.94667 31.48 3.17333 31.1867 2.56 30.6C1.97333 30.0133 1.68 29.24 1.68 28.28C1.68 27.2933 1.78667 26.1867 2 24.96C2.24 23.7333 2.56 22.24 2.96 20.48C3.36 18.6933 3.65333 17.2533 3.84 16.16C2.85333 16.24 2.12 16.32 1.64 16.4C1.58667 16.08 1.56 15.6533 1.56 15.12C1.56 14.56 1.6 14.1067 1.68 13.76H4.2C4.41333 12.32 4.52 10.96 4.52 9.68L4.48 8.44V8.32C6.56 7.6 8.52 7.24 10.36 7.24C10.4667 7.77333 10.52 8.44 10.52 9.24C10.52 10.04 10.2933 11.5467 9.84 13.76H13.72ZM12.8369 24.08C12.8369 20.7467 13.8369 18.12 15.8369 16.2C17.8635 14.2533 20.1569 13.28 22.7169 13.28C24.2902 13.28 25.5835 13.6667 26.5969 14.44C27.6102 15.2133 28.1169 16.2533 28.1169 17.56C28.1169 18.84 27.7835 19.92 27.1169 20.8C26.4769 21.68 25.6902 22.36 24.7569 22.84C22.8635 23.7733 21.1302 24.36 19.5569 24.6L18.5969 24.72C18.7835 27.2267 19.8102 28.48 21.6769 28.48C22.3169 28.48 22.9969 28.32 23.7169 28C24.4369 27.68 24.9969 27.36 25.3969 27.04L25.9969 26.56L26.9569 27.84C26.7435 28.1333 26.3169 28.52 25.6769 29C25.0369 29.48 24.4369 29.88 23.8769 30.2C22.3302 31.0533 20.6369 31.48 18.7969 31.48C16.9569 31.48 15.5035 30.8267 14.4369 29.52C13.3702 28.2133 12.8369 26.4 12.8369 24.08ZM18.5569 22.76C19.9169 22.52 20.9969 21.9467 21.7969 21.04C22.5969 20.1333 22.9969 18.96 22.9969 17.52C22.9969 16.08 22.5702 15.36 21.7169 15.36C20.7035 15.36 19.9169 16.2267 19.3569 17.96C18.8235 19.6667 18.5569 21.2667 18.5569 22.76ZM31.3334 17.68C31.3334 17.0667 30.9468 16.2267 30.1734 15.16L29.8134 14.6L29.8534 14.08C31.3734 13.68 33.6668 13.48 36.7334 13.48C37.0801 13.88 37.2534 14.6267 37.2534 15.72C37.2534 16.7867 36.9201 19.2933 36.2534 23.24C35.6134 27.1867 35.0668 30.0267 34.6134 31.76C34.1868 33.4933 33.7334 34.8533 33.2534 35.84C32.7734 36.8533 32.0134 37.7867 30.9734 38.64C29.9601 39.52 28.8801 39.96 27.7334 39.96C26.5601 39.96 25.4801 39.7067 24.4934 39.2C23.5068 38.6933 22.7601 38.2 22.2534 37.72L21.5334 36.96L22.4134 35.68C23.7201 36.4533 24.6934 36.84 25.3334 36.84C26.3468 36.84 27.2534 36.1333 28.0534 34.72C28.8534 33.3067 29.6001 30.5067 30.2934 26.32C30.9868 22.1067 31.3334 19.2267 31.3334 17.68ZM32.7734 9.12C32.2401 8.58667 31.9734 7.88 31.9734 7C31.9734 6.12 32.3334 5.34667 33.0534 4.68C33.8001 4.01333 34.6534 3.68 35.6134 3.68C36.5734 3.68 37.3201 3.94667 37.8534 4.48C38.3868 5.01333 38.6534 5.72 38.6534 6.6C38.6534 7.45333 38.2668 8.21333 37.4934 8.88C36.7468 9.54667 35.9068 9.88 34.9734 9.88C34.0401 9.88 33.3068 9.62667 32.7734 9.12ZM51.1278 14.44C51.1811 14.3867 51.3278 14.04 51.5678 13.4C52.8211 13.4 54.5011 13.7733 56.6078 14.52C55.9411 16.7333 55.4078 19.0533 55.0078 21.48C54.6078 23.88 54.4078 25.6 54.4078 26.64C54.4078 27.6533 54.5145 28.16 54.7278 28.16C54.8878 28.16 55.4745 27.9067 56.4878 27.4L56.9678 27.16L57.6878 28.56C57.4478 28.7733 57.1278 29.04 56.7278 29.36C56.3545 29.68 55.6345 30.12 54.5678 30.68C53.5011 31.2133 52.5411 31.48 51.6878 31.48C50.0345 31.48 49.0745 30.7333 48.8078 29.24C47.1011 30.7333 45.5545 31.48 44.1678 31.48C42.8078 31.48 41.6478 30.9467 40.6878 29.88C39.7545 28.8133 39.2878 27.1333 39.2878 24.84C39.2878 21.2667 40.0211 18.4533 41.4878 16.4C42.9545 14.32 44.7278 13.28 46.8078 13.28C48.3011 13.28 49.7411 13.6667 51.1278 14.44ZM46.5678 28.08C47.2078 28.08 47.9278 27.8267 48.7278 27.32C48.9145 23.56 49.5411 19.84 50.6078 16.16C49.8078 15.8133 49.1278 15.64 48.5678 15.64C47.6078 15.64 46.7811 16.5867 46.0878 18.48C45.4211 20.3467 45.0878 22.4133 45.0878 24.68C45.0878 26.9467 45.5811 28.08 46.5678 28.08Z" fill="white"/>
<path d="M87.88 4.6C87.88 3.72 87.8 3.09333 87.64 2.72C89.72 2 91.68 1.64 93.52 1.64C93.76 1.88 93.88 2.49333 93.88 3.48C93.88 5.24 93.1333 9.29333 91.64 15.64C93.8 14.0667 95.6933 13.28 97.32 13.28C98.3333 13.28 99.0933 13.6 99.6 14.24C100.133 14.88 100.4 15.7333 100.4 16.8C100.4 17.84 100.093 19.56 99.48 21.96C98.8667 24.3333 98.56 25.96 98.56 26.84C98.56 27.72 98.6667 28.16 98.88 28.16C99.0933 28.16 99.6533 27.92 100.56 27.44L101.04 27.2L101.76 28.6C101.52 28.8133 101.2 29.08 100.8 29.4C100.4 29.72 99.6667 30.1467 98.6 30.68C97.5333 31.2133 96.5467 31.48 95.64 31.48C94.76 31.48 94.0533 31.2 93.52 30.64C92.9867 30.0533 92.72 29.28 92.72 28.32C92.72 27.3333 93.0133 25.56 93.6 23C94.2133 20.4133 94.52 18.7867 94.52 18.12C94.52 17.4267 94.24 17.08 93.68 17.08C92.9867 17.08 92.12 17.3733 91.08 17.96C89.6133 24.4133 88.88 28.6 88.88 30.52C87.76 30.9467 85.8533 31.16 83.16 31.16C83.1333 30.7067 83.12 30.3067 83.12 29.96C83.12 28.8133 83.9067 24.8933 85.48 18.2C87.08 11.5067 87.88 6.97333 87.88 4.6ZM114.964 14.44C115.017 14.3867 115.164 14.04 115.404 13.4C116.657 13.4 118.337 13.7733 120.444 14.52C119.777 16.7333 119.244 19.0533 118.844 21.48C118.444 23.88 118.244 25.6 118.244 26.64C118.244 27.6533 118.35 28.16 118.564 28.16C118.724 28.16 119.31 27.9067 120.324 27.4L120.804 27.16L121.524 28.56C121.284 28.7733 120.964 29.04 120.564 29.36C120.19 29.68 119.47 30.12 118.404 30.68C117.337 31.2133 116.377 31.48 115.524 31.48C113.87 31.48 112.91 30.7333 112.644 29.24C110.937 30.7333 109.39 31.48 108.004 31.48C106.644 31.48 105.484 30.9467 104.524 29.88C103.59 28.8133 103.124 27.1333 103.124 24.84C103.124 21.2667 103.857 18.4533 105.324 16.4C106.79 14.32 108.564 13.28 110.644 13.28C112.137 13.28 113.577 13.6667 114.964 14.44ZM110.404 28.08C111.044 28.08 111.764 27.8267 112.564 27.32C112.75 23.56 113.377 19.84 114.444 16.16C113.644 15.8133 112.964 15.64 112.404 15.64C111.444 15.64 110.617 16.5867 109.924 18.48C109.257 20.3467 108.924 22.4133 108.924 24.68C108.924 26.9467 109.417 28.08 110.404 28.08ZM123.063 31.12H122.783C122.729 30.9067 122.703 30.4267 122.703 29.68C122.703 28.9067 123.063 26.8533 123.783 23.52C124.503 20.1867 124.863 18.28 124.863 17.8C124.863 16.9733 124.489 16.0667 123.743 15.08L123.383 14.6L123.423 14.08C124.863 13.68 127.169 13.48 130.343 13.48C130.663 14.1733 130.823 15.1467 130.823 16.4C131.116 15.92 131.729 15.28 132.663 14.48C133.596 13.68 134.556 13.28 135.543 13.28C136.983 13.28 137.703 14.5333 137.703 17.04C137.569 17.2 137.383 17.4133 137.143 17.68C136.929 17.92 136.476 18.2667 135.783 18.72C135.116 19.1733 134.463 19.4533 133.823 19.56C133.796 19.56 133.569 19.2 133.143 18.48C132.716 17.76 132.396 17.4 132.183 17.4C131.516 17.64 130.929 18.04 130.423 18.6C129.196 24.12 128.583 27.6933 128.583 29.32C128.583 29.9067 128.596 30.32 128.623 30.56C127.689 30.9333 125.836 31.12 123.063 31.12ZM137.913 31.12H137.153C137.153 29.8667 137.526 27.4667 138.273 23.92C139.046 20.3733 139.433 18.36 139.433 17.88C139.433 17 139.059 16.0667 138.313 15.08L137.953 14.6L137.993 14.08C139.433 13.68 141.739 13.48 144.913 13.48C145.286 13.9867 145.473 14.8133 145.473 15.96C147.873 14.1733 149.779 13.28 151.193 13.28C152.979 13.28 154.033 14.2 154.353 16.04C155.073 15.4533 156.006 14.8533 157.153 14.24C158.326 13.6 159.366 13.28 160.273 13.28C161.206 13.28 161.979 13.5867 162.593 14.2C163.206 14.7867 163.513 15.6133 163.513 16.68C163.513 17.7467 163.219 19.5067 162.633 21.96C162.046 24.4133 161.753 26.0667 161.753 26.92C161.753 27.7467 161.873 28.16 162.113 28.16C162.273 28.16 162.819 27.9067 163.753 27.4L164.193 27.16L164.913 28.56C164.219 29.2533 163.273 29.92 162.073 30.56C160.899 31.1733 159.859 31.48 158.953 31.48C156.953 31.48 155.953 30.3467 155.953 28.08C155.953 27.2533 156.233 25.6 156.793 23.12C157.379 20.6133 157.673 18.9867 157.673 18.24C157.673 17.4667 157.446 17.08 156.993 17.08C156.219 17.08 155.339 17.3733 154.353 17.96C154.299 18.4933 153.926 20.3067 153.233 23.4C152.566 26.4933 152.233 28.8933 152.233 30.6C151.459 30.9467 149.646 31.12 146.793 31.12C146.739 30.8267 146.713 30.12 146.713 29C146.713 27.88 147.019 25.9733 147.633 23.28C148.273 20.5867 148.593 18.88 148.593 18.16C148.593 17.44 148.339 17.08 147.833 17.08C147.033 17.08 146.153 17.4 145.193 18.04C145.139 18.28 144.873 19.4533 144.393 21.56C143.433 25.7733 142.953 28.7733 142.953 30.56C142.019 30.9333 140.339 31.12 137.913 31.12ZM178.128 14.44C178.181 14.3867 178.328 14.04 178.568 13.4C179.821 13.4 181.501 13.7733 183.608 14.52C182.941 16.7333 182.408 19.0533 182.008 21.48C181.608 23.88 181.408 25.6 181.408 26.64C181.408 27.6533 181.514 28.16 181.728 28.16C181.888 28.16 182.474 27.9067 183.488 27.4L183.968 27.16L184.688 28.56C184.448 28.7733 184.128 29.04 183.728 29.36C183.354 29.68 182.634 30.12 181.568 30.68C180.501 31.2133 179.541 31.48 178.688 31.48C177.034 31.48 176.074 30.7333 175.808 29.24C174.101 30.7333 172.554 31.48 171.168 31.48C169.808 31.48 168.648 30.9467 167.688 29.88C166.754 28.8133 166.288 27.1333 166.288 24.84C166.288 21.2667 167.021 18.4533 168.488 16.4C169.954 14.32 171.728 13.28 173.808 13.28C175.301 13.28 176.741 13.6667 178.128 14.44ZM173.568 28.08C174.208 28.08 174.928 27.8267 175.728 27.32C175.914 23.56 176.541 19.84 177.608 16.16C176.808 15.8133 176.128 15.64 175.568 15.64C174.608 15.64 173.781 16.5867 173.088 18.48C172.421 20.3467 172.088 22.4133 172.088 24.68C172.088 26.9467 172.581 28.08 173.568 28.08ZM195.747 4.44C195.747 7.08 194.88 11.2267 193.147 16.88C193.013 17.3333 192.76 18.16 192.387 19.36C192.04 20.5333 191.773 21.44 191.587 22.08C190.867 22.32 190.227 22.44 189.667 22.44C189.133 22.44 188.653 22.4133 188.227 22.36C189.187 16.5733 189.667 11.4667 189.667 7.04L189.427 3.68C191.693 2.96 193.72 2.6 195.507 2.6C195.667 2.84 195.747 3.45333 195.747 4.44ZM186.267 30.72C185.733 30.1867 185.467 29.48 185.467 28.6C185.467 27.72 185.827 26.9467 186.547 26.28C187.293 25.6133 188.147 25.28 189.107 25.28C190.067 25.28 190.813 25.5467 191.347 26.08C191.88 26.6133 192.147 27.32 192.147 28.2C192.147 29.0533 191.76 29.8133 190.987 30.48C190.24 31.1467 189.4 31.48 188.467 31.48C187.533 31.48 186.8 31.2267 186.267 30.72Z" fill="white"/>
<path d="M81.08 22.9C81.08 25.38 79.92 27.48 77.6 29.2C75.32 30.88 72.64 31.72 69.56 31.72C66.48 31.72 63.94 31.2 61.94 30.16C59.98 29.12 59 28.14 59 27.22C59 26.26 59.6 25.06 60.8 23.62C62.04 22.14 63.3 21.28 64.58 21.04C66.42 22.04 68.08 24.26 69.56 27.7C70.72 27.7 71.3 27.32 71.3 26.56C71.3 26 71.14 25.48 70.82 25C70.5 24.52 70.26 24.14 70.1 23.86C69.94 23.58 69.66 23.2 69.26 22.72C68.86 22.2 68.56 21.82 68.36 21.58C67.36 20.38 66.46 19.28 65.66 18.28C63.74 15.88 62.78 13.78 62.78 11.98C62.78 10.14 63.36 8.64 64.52 7.48C66.52 5.44 69.46 4.42 73.34 4.42C75.78 4.42 77.72 4.9 79.16 5.86C80.6 6.78 81.32 8.18 81.32 10.06C81.32 11.9 80.22 14.02 78.02 16.42C80.06 18.78 81.08 20.94 81.08 22.9ZM77.06 11.92C77.54 11.16 77.78 10.48 77.78 9.88C77.78 9.28 77.52 8.82 77 8.5C76.48 8.18 75.86 8.02 75.14 8.02C74.42 8.02 73.86 8.2 73.46 8.56C73.1 8.88 72.92 9.32 72.92 9.88C72.92 10.44 73.78 11.68 75.5 13.6C76.06 13.2 76.58 12.64 77.06 11.92Z" fill="#FF602E"/>
</svg>
