<svg width="125" height="32" viewBox="0 0 125 32" fill="none" xmlns="http://www.w3.org/2000/svg">
<path d="M22.2266 11.2109C21.5755 11.2109 20.8724 11.263 20.1172 11.3672C19.362 11.4453 18.6198 11.5365 17.8906 11.6406C17.3698 11.7188 16.862 11.7839 16.3672 11.8359C15.8984 11.888 15.4688 11.9271 15.0781 11.9531C14.8958 12.526 14.7135 13.0339 14.5312 13.4766C14.349 13.9193 14.1536 14.349 13.9453 14.7656C13.737 15.2083 13.5417 15.6641 13.3594 16.1328C13.2031 16.5755 13.0469 17.0573 12.8906 17.5781C12.6302 17.9948 12.4089 18.3854 12.2266 18.75C12.0703 19.0885 11.9401 19.4792 11.8359 19.9219C11.5234 20.3125 11.2891 20.7292 11.1328 21.1719C10.9766 21.5885 10.8594 21.9531 10.7812 22.2656L10.625 22.7344C10.4688 22.8906 10.3776 23.0208 10.3516 23.125C10.3255 23.2031 10.2604 23.2812 10.1562 23.3594C10.1302 23.6458 10.0391 23.9323 9.88281 24.2188C9.83073 24.349 9.79167 24.4792 9.76562 24.6094C9.73958 24.7135 9.72656 24.7917 9.72656 24.8438C9.72656 25.1042 9.66146 25.2734 9.53125 25.3516C9.55729 25.4818 9.55729 25.625 9.53125 25.7812C9.50521 25.9115 9.47917 26.0417 9.45312 26.1719C9.375 26.4844 9.34896 26.7318 9.375 26.9141C9.45312 27.0182 9.51823 27.1094 9.57031 27.1875C9.64844 27.2656 9.70052 27.3698 9.72656 27.5C9.88281 27.6042 10 27.6693 10.0781 27.6953C10.1823 27.7734 10.3385 27.8646 10.5469 27.9688L10.8984 28.3594C11.0286 29.1146 10.9115 29.7135 10.5469 30.1562C10.1562 30.651 9.49219 30.8984 8.55469 30.8984H8.08594C7.95573 30.7682 7.8776 30.6641 7.85156 30.5859C7.64323 30.5078 7.47396 30.4427 7.34375 30.3906C7.21354 30.3385 7.09635 30.2344 6.99219 30.0781C6.65365 29.9219 6.38021 29.7917 6.17188 29.6875L5.82031 29.4922C5.82031 29.2057 5.82031 29.0495 5.82031 29.0234C5.63802 28.7891 5.49479 28.5286 5.39062 28.2422C5.3125 27.9557 5.2474 27.6693 5.19531 27.3828C5.14323 27.1484 5.07812 26.9271 5 26.7188C4.94792 26.5104 4.86979 26.3281 4.76562 26.1719C4.71354 24.6615 4.85677 23.3854 5.19531 22.3438C5.53385 21.3021 5.88542 20.2995 6.25 19.3359C6.45833 18.8151 6.66667 18.2943 6.875 17.7734C7.08333 17.2266 7.26562 16.6667 7.42188 16.0938L7.77344 15.7031C7.95573 15.2865 8.09896 14.9479 8.20312 14.6875C8.33333 14.401 8.46354 14.1146 8.59375 13.8281C8.67188 13.6458 8.73698 13.4766 8.78906 13.3203C8.86719 13.138 8.93229 12.9818 8.98438 12.8516C8.82812 12.8516 8.6849 12.8646 8.55469 12.8906C8.42448 12.8906 8.29427 12.9036 8.16406 12.9297C8.00781 12.9557 7.86458 12.9818 7.73438 13.0078C7.60417 13.0078 7.47396 13.0078 7.34375 13.0078C7.16146 13.0078 7.03125 12.9948 6.95312 12.9688C6.66667 13.099 6.35417 13.1641 6.01562 13.1641H5.625C5.54688 13.1641 5.46875 13.1641 5.39062 13.1641C5.33854 13.138 5.28646 13.125 5.23438 13.125C4.97396 13.125 4.76562 13.1641 4.60938 13.2422C4.29688 13.2422 3.9974 13.2422 3.71094 13.2422H3.32031C3.26823 13.2422 3.20312 13.2552 3.125 13.2812C3.04688 13.2812 2.98177 13.2812 2.92969 13.2812C2.7474 13.2812 2.55208 13.2682 2.34375 13.2422C2.13542 13.1901 1.91406 13.099 1.67969 12.9688C1.36719 12.5521 1.15885 12.3307 1.05469 12.3047L0.703125 11.8359C0.677083 11.6797 0.638021 11.5365 0.585938 11.4062C0.533854 11.25 0.481771 11.0807 0.429688 10.8984C0.325521 10.638 0.221354 10.3646 0.117188 10.0781C0.0390625 9.76562 0 9.40104 0 8.98438C0.0260417 8.77604 0.078125 8.61979 0.15625 8.51562C0.234375 8.41146 0.299479 8.32031 0.351562 8.24219L0.46875 7.65625L0.976562 7.69531H2.07031C2.90365 7.69531 3.75 7.66927 4.60938 7.61719C5.46875 7.53906 6.35417 7.46094 7.26562 7.38281C7.78646 7.33073 8.30729 7.27865 8.82812 7.22656C9.375 7.17448 9.9349 7.1224 10.5078 7.07031C10.612 6.83594 10.7161 6.61458 10.8203 6.40625L11.2109 6.21094C11.6797 6.1849 12.0052 6.25 12.1875 6.40625C12.3958 6.53646 12.5651 6.66667 12.6953 6.79688C13.2682 6.74479 13.8411 6.69271 14.4141 6.64062C15.013 6.5625 15.612 6.47135 16.2109 6.36719C17.0964 6.23698 17.9818 6.11979 18.8672 6.01562C19.7786 5.91146 20.651 5.85938 21.4844 5.85938C21.849 5.85938 22.2005 5.8724 22.5391 5.89844C22.8776 5.92448 23.1901 5.96354 23.4766 6.01562L23.8672 6.28906C23.9453 6.44531 24.0495 6.58854 24.1797 6.71875C24.3359 6.84896 24.4922 6.97917 24.6484 7.10938C24.9609 7.39583 25.2734 7.73438 25.5859 8.125C25.8984 8.51562 26.0156 9.08854 25.9375 9.84375C25.7292 10.1562 25.5729 10.3385 25.4688 10.3906L25.1172 10.8594L24.7266 10.8203C24.5703 10.8203 24.4271 10.8464 24.2969 10.8984C24.1667 10.9245 24.0365 10.9635 23.9062 11.0156C23.8021 11.0677 23.6979 11.1198 23.5938 11.1719C23.4896 11.1979 23.3724 11.224 23.2422 11.25C23.0078 11.25 22.8125 11.25 22.6562 11.25C22.526 11.224 22.3828 11.2109 22.2266 11.2109ZM43.1766 8.00781C43.2026 8.1901 43.2026 8.33333 43.1766 8.4375C43.1766 8.51562 43.1635 8.59375 43.1375 8.67188C43.1375 8.75 43.1375 8.84115 43.1375 8.94531C43.1375 9.02344 43.1635 9.15365 43.2156 9.33594C42.6688 10.2214 42.0307 10.8333 41.3016 11.1719C40.5984 11.4844 39.8302 11.7188 38.9969 11.875C38.1635 12.0052 37.3042 12.1484 36.4188 12.3047C35.5594 12.4609 34.7 12.7995 33.8406 13.3203C33.5021 13.1901 33.1896 13.1901 32.9031 13.3203C32.6427 13.4505 32.2521 13.4896 31.7313 13.4375C31.575 13.5938 31.3797 13.7109 31.1453 13.7891C30.9109 13.8411 30.6766 13.9062 30.4422 13.9844C30.5464 14.2188 30.5854 14.4661 30.5594 14.7266C30.5594 14.9609 30.5984 15.1562 30.6766 15.3125C31.588 15.3906 32.5906 15.3776 33.6844 15.2734C34.8042 15.1693 35.8979 15.1042 36.9656 15.0781C36.9917 15.2083 36.9786 15.2995 36.9266 15.3516C36.8745 15.3776 36.8615 15.4427 36.8875 15.5469C37.0698 15.6771 37.2521 15.8464 37.4344 16.0547C37.6167 16.237 37.799 16.4193 37.9813 16.6016C38.1635 16.7839 38.3458 16.9401 38.5281 17.0703C38.7365 17.1745 38.9708 17.2135 39.2313 17.1875C39.3354 17.3958 39.4005 17.6302 39.4266 17.8906C39.4786 18.125 39.4526 18.3724 39.3484 18.6328C38.9318 18.9193 38.5151 19.2188 38.0984 19.5312C37.6818 19.8177 37.2391 20.0781 36.7703 20.3125C36.3276 20.5469 35.8458 20.7422 35.325 20.8984C34.8302 21.0286 34.2703 21.0807 33.6453 21.0547C33.5151 21.0547 33.4109 21.0547 33.3328 21.0547C33.2807 21.0547 33.2026 21.0156 33.0984 20.9375C32.8901 21.0677 32.5906 21.1068 32.2 21.0547C31.8354 21.0026 31.549 21.0417 31.3406 21.1719C31.0542 21.0417 30.7026 20.9896 30.2859 21.0156C29.8953 21.0156 29.5438 20.9635 29.2313 20.8594C28.8146 21.4062 28.437 21.9922 28.0984 22.6172C27.7599 23.2422 27.4604 23.9062 27.2 24.6094C28.0854 24.7396 28.8146 24.7917 29.3875 24.7656C29.9865 24.7396 30.5464 24.7005 31.0672 24.6484C31.588 24.5703 32.1219 24.5052 32.6688 24.4531C33.2156 24.375 33.9057 24.349 34.7391 24.375C35.2599 24.0885 35.8719 23.9062 36.575 23.8281C37.3042 23.724 37.9682 23.5677 38.5672 23.3594C38.7755 23.4375 38.9578 23.5807 39.1141 23.7891C39.2703 23.9714 39.4135 24.1536 39.5438 24.3359C39.7 24.4922 39.8563 24.6354 40.0125 24.7656C40.1688 24.8958 40.3641 24.9479 40.5984 24.9219C40.7026 25.026 40.7677 25.1562 40.7938 25.3125C40.8458 25.4427 40.8849 25.5729 40.9109 25.7031C40.937 25.8333 40.976 25.9505 41.0281 26.0547C41.1063 26.1328 41.2234 26.1589 41.3797 26.1328C40.9891 26.9922 40.5333 27.6562 40.0125 28.125C39.5177 28.5677 38.9448 28.9062 38.2938 29.1406C37.6427 29.375 36.9135 29.5573 36.1063 29.6875C35.325 29.8177 34.4526 29.974 33.4891 30.1562C33.2547 30.2083 33.0594 30.1953 32.9031 30.1172C32.7469 30.0651 32.5646 30.0391 32.3563 30.0391C31.7573 30.1693 31.0411 30.2865 30.2078 30.3906C29.3745 30.4948 28.5281 30.5339 27.6688 30.5078C26.8094 30.4818 25.9891 30.3646 25.2078 30.1562C24.4266 29.974 23.7885 29.6354 23.2938 29.1406C23.0854 28.9583 22.9422 28.75 22.8641 28.5156C22.812 28.2552 22.6427 28.0599 22.3563 27.9297C22.3302 27.5911 22.2781 27.2135 22.2 26.7969C22.1219 26.3802 22.0438 25.9505 21.9656 25.5078C21.8875 25.0391 21.8224 24.5833 21.7703 24.1406C21.7443 23.6979 21.7703 23.2943 21.8484 22.9297C21.9266 22.5391 22.0828 22.1875 22.3172 21.875C22.5776 21.5625 22.6688 21.224 22.5906 20.8594C22.7208 20.8333 22.799 20.7682 22.825 20.6641C22.851 20.5339 22.9552 20.4818 23.1375 20.5078C23.2938 20.0391 23.463 19.5964 23.6453 19.1797C23.8276 18.763 24.0099 18.3594 24.1922 17.9688C24.4005 17.5781 24.5958 17.1875 24.7781 16.7969C24.9865 16.3802 25.1818 15.9245 25.3641 15.4297C24.9995 15.0911 24.726 14.7266 24.5438 14.3359C24.3875 13.9193 24.2703 13.5156 24.1922 13.125C24.1141 12.7083 24.049 12.2917 23.9969 11.875C23.9448 11.4323 23.8536 10.9896 23.7234 10.5469C23.9839 10.1562 24.2964 9.84375 24.6609 9.60938C25.0516 9.34896 25.4682 9.14062 25.9109 8.98438C26.3536 8.82812 26.8354 8.69792 27.3563 8.59375C27.8771 8.48958 28.424 8.3724 28.9969 8.24219C30.0385 7.90365 30.963 7.64323 31.7703 7.46094C32.6036 7.27865 33.4109 7.13542 34.1922 7.03125C34.9995 6.90104 35.8328 6.78385 36.6922 6.67969C37.5516 6.57552 38.5281 6.41927 39.6219 6.21094C39.8563 6.44531 40.0776 6.5625 40.2859 6.5625C40.3901 6.32812 40.5073 6.26302 40.6375 6.36719C40.7938 6.44531 40.8589 6.36719 40.8328 6.13281C41.0932 6.57552 41.4188 6.95312 41.8094 7.26562C42.226 7.55208 42.6818 7.79948 43.1766 8.00781ZM63.3453 11.875C63.2932 12.5521 63.2151 13.151 63.1109 13.6719C63.0068 14.1927 62.8635 14.7396 62.6813 15.3125C62.2385 17.4219 61.7177 19.4271 61.1188 21.3281C60.5458 23.2292 59.8818 24.9349 59.1266 26.4453C58.4495 27.2005 57.7854 27.8646 57.1344 28.4375C56.5094 29.0104 55.8063 29.4141 55.025 29.6484C54.6344 29.7005 54.2828 29.7656 53.9703 29.8438C53.6839 29.8958 53.3974 29.9609 53.1109 30.0391C52.9807 30.0651 52.8375 30.0911 52.6813 30.1172C52.551 30.1432 52.4208 30.1823 52.2906 30.2344C51.9 30.1562 51.5224 30.0911 51.1578 30.0391C50.8193 30.013 50.5068 30 50.2203 30L49.7125 29.8438C49.4521 29.7656 49.2438 29.7005 49.0875 29.6484C48.9573 29.5964 48.8271 29.5573 48.6969 29.5312C48.5927 29.4792 48.4625 29.4401 48.3063 29.4141C48.176 29.388 47.9547 29.362 47.6422 29.3359C47.2516 29.4922 46.887 29.5703 46.5484 29.5703C46.0797 29.5703 45.5719 29.375 45.025 28.9844C44.4781 28.5938 44.0224 27.7604 43.6578 26.4844C43.7099 25.9896 43.788 25.5599 43.8922 25.1953C43.9703 24.8047 44.0615 24.5052 44.1656 24.2969C44.7906 23.9323 45.3115 23.75 45.7281 23.75C46.2229 23.75 46.6917 23.8281 47.1344 23.9844C47.6031 24.1406 48.0589 24.3099 48.5016 24.4922C48.7099 24.5703 48.8531 24.6354 48.9313 24.6875C49.0094 24.7396 49.0745 24.7786 49.1266 24.8047C49.1786 24.8307 49.2307 24.8438 49.2828 24.8438C49.3609 24.8438 49.5042 24.8438 49.7125 24.8438C49.8427 24.8438 49.9469 24.8438 50.025 24.8438C50.1292 24.8177 50.2333 24.7917 50.3375 24.7656L50.7281 24.8047C50.8844 24.8828 51.0667 24.9219 51.275 24.9219C51.5354 24.9219 51.8609 24.8568 52.2516 24.7266C52.4339 24.6484 52.5771 24.5964 52.6813 24.5703C52.8115 24.5443 52.9417 24.5182 53.0719 24.4922L53.3844 24.1797C53.6188 24.1016 53.788 24.0104 53.8922 23.9062C54.0224 23.8021 54.1266 23.6849 54.2047 23.5547C54.3089 23.4245 54.4 23.2812 54.4781 23.125C54.5563 22.9688 54.6604 22.7995 54.7906 22.6172C54.8948 22.487 54.9859 22.3568 55.0641 22.2266C55.1682 22.0964 55.2724 21.9661 55.3766 21.8359V21.4453C55.7151 20.6901 56.0146 19.9089 56.275 19.1016C56.5354 18.2682 56.7698 17.4349 56.9781 16.6016C57.1865 15.7682 57.3557 14.9609 57.4859 14.1797C57.6422 13.3984 57.7724 12.6953 57.8766 12.0703H57.4859C56.8349 12.0703 56.301 12.0833 55.8844 12.1094C55.4677 12.1094 55.0901 12.1354 54.7516 12.1875C54.413 12.2135 54.0484 12.2656 53.6578 12.3438C53.2932 12.4219 52.8245 12.513 52.2516 12.6172L51.6656 12.7344C51.275 12.9427 50.8844 13.125 50.4938 13.2812C50.1031 13.4375 49.7125 13.5156 49.3219 13.5156C48.6448 13.5156 48.0719 13.2552 47.6031 12.7344C47.1083 12.3958 46.8219 11.9531 46.7438 11.4062C46.6135 11.25 46.5745 11.0677 46.6266 10.8594C46.5224 10.5469 46.4703 10.2734 46.4703 10.0391C46.4703 9.77865 46.4703 9.54427 46.4703 9.33594V8.78906H46.9781C47.1083 8.65885 47.1995 8.56771 47.2516 8.51562C47.3036 8.4375 47.3427 8.34635 47.3688 8.24219L47.7984 7.89062C48.2411 7.83854 48.6969 7.77344 49.1656 7.69531C49.6604 7.59115 50.1682 7.48698 50.6891 7.38281C51.1839 7.27865 51.6005 7.20052 51.9391 7.14844C52.3036 7.09635 52.6422 7.05729 52.9547 7.03125C53.2932 7.00521 53.6318 6.99219 53.9703 6.99219C54.3349 6.96615 54.7516 6.95312 55.2203 6.95312H56.1188C56.1969 6.84896 56.275 6.79688 56.3531 6.79688C56.4573 6.77083 56.5354 6.75781 56.5875 6.75781C56.7177 6.75781 56.8219 6.77083 56.9 6.79688C56.9781 6.82292 57.0432 6.84896 57.0953 6.875C57.8245 6.74479 58.5016 6.66667 59.1266 6.64062C59.7516 6.58854 60.3115 6.5625 60.8063 6.5625C61.0667 6.5625 61.301 6.5625 61.5094 6.5625C61.7438 6.5625 61.9651 6.57552 62.1734 6.60156H63.4625H64.3219C64.4521 6.57552 64.6604 6.5625 64.9469 6.5625C65.3635 6.5625 65.624 6.57552 65.7281 6.60156C65.8583 6.60156 66.0797 6.6276 66.3922 6.67969C66.7568 6.73177 67.0823 6.78385 67.3688 6.83594C67.6813 6.86198 67.9938 6.875 68.3063 6.875H68.8922L69.0094 7.26562L69.3219 7.65625C69.374 7.78646 69.4521 7.90365 69.5563 8.00781C69.6865 8.11198 69.8167 8.22917 69.9469 8.35938C70.2073 8.61979 70.4547 8.91927 70.6891 9.25781C70.9495 9.59635 71.0406 10.1042 70.9625 10.7812L70.6891 11.2109C70.5589 11.263 70.4026 11.3802 70.2203 11.5625L69.8688 11.875C69.5823 11.901 69.3349 11.9271 69.1266 11.9531C68.9182 11.9531 68.7099 11.9531 68.5016 11.9531C68.1109 11.9531 67.7073 11.9401 67.2906 11.9141C66.9 11.888 66.4833 11.862 66.0406 11.8359C65.8063 11.8359 65.624 11.8359 65.4938 11.8359C65.3635 11.8359 65.2333 11.8359 65.1031 11.8359C64.999 11.8359 64.8818 11.8359 64.7516 11.8359C64.6214 11.8359 64.4521 11.8359 64.2438 11.8359C64.0354 11.8359 63.8792 11.8359 63.775 11.8359C63.6708 11.8359 63.5276 11.849 63.3453 11.875ZM88.6703 26.7188C88.5141 27.1615 88.2797 27.6172 87.9672 28.0859C87.6807 28.5286 87.3292 28.9323 86.9125 29.2969C86.5219 29.6354 86.0792 29.9219 85.5844 30.1562C85.0896 30.3906 84.5687 30.5208 84.0219 30.5469C83.6833 30.4688 83.449 30.3776 83.3187 30.2734C83.2146 30.1953 83.0974 30.1172 82.9672 30.0391C82.8891 29.987 82.8109 29.9479 82.7328 29.9219C82.6807 29.8698 82.6286 29.8307 82.5766 29.8047L82.1078 29.6094L82.2641 29.1016C82.3161 28.8932 82.3031 28.737 82.225 28.6328C82.1469 28.5026 81.9906 28.3333 81.7562 28.125C81.6781 28.0469 81.6 27.9688 81.5219 27.8906C81.4437 27.8125 81.3786 27.7344 81.3266 27.6562L80.6625 26.9141L81.7172 26.6406C82.3682 26.4583 82.7979 26.224 83.0062 25.9375C83.2406 25.651 83.3318 25.1693 83.2797 24.4922C82.7589 24.388 82.3161 24.375 81.9516 24.4531C81.613 24.5312 81.2615 24.6224 80.8969 24.7266C80.4281 24.8568 79.9464 24.974 79.4516 25.0781C78.9828 25.1562 78.462 25.1953 77.8891 25.1953C77.6807 25.1953 77.4854 25.1953 77.3031 25.1953C77.1208 25.1693 76.9255 25.1432 76.7172 25.1172L76.3266 25.0391C76.2745 24.7526 76.2224 24.5964 76.1703 24.5703C76.1182 24.5182 76.0661 24.4661 76.0141 24.4141C75.8839 24.2839 75.7406 24.1146 75.5844 23.9062C75.4542 23.6719 75.4281 23.3854 75.5062 23.0469C75.376 22.8125 75.2979 22.5781 75.2719 22.3438C75.1156 22.6562 74.9984 22.9818 74.9203 23.3203L74.7641 23.7109L74.3734 23.7891C74.3214 23.8151 74.2823 23.8802 74.2562 23.9844C74.2302 24.0625 74.2172 24.1276 74.2172 24.1797L74.0219 24.8438C73.9698 24.8958 73.9177 24.9479 73.8656 25C73.8135 25.026 73.7615 25.0651 73.7094 25.1172C73.6573 25.3516 73.5922 25.5859 73.5141 25.8203C73.4359 26.0547 73.3578 26.276 73.2797 26.4844C73.1495 26.8229 73.0323 27.1615 72.9281 27.5C72.85 27.8125 72.824 28.125 72.85 28.4375L72.6937 28.8672C72.5635 29.0234 72.4203 29.1536 72.2641 29.2578C72.1078 29.3359 71.9516 29.4141 71.7953 29.4922C71.7432 29.5443 71.6651 29.5964 71.5609 29.6484C71.4828 29.6745 71.4177 29.7005 71.3656 29.7266L71.2484 30.1562L70.7797 30.2344C70.4932 30.2865 70.2849 30.3255 70.1547 30.3516C70.0505 30.3776 69.9203 30.3906 69.7641 30.3906L69.3734 30.3516C69.087 30.1172 68.8656 29.9349 68.7094 29.8047C68.5531 29.6484 68.3708 29.5052 68.1625 29.375C67.9281 29.0625 67.7979 28.8281 67.7719 28.6719C67.7458 28.5156 67.7198 28.3724 67.6937 28.2422C67.6417 28.0859 67.6156 27.9557 67.6156 27.8516C67.5896 27.7474 67.5505 27.6693 67.4984 27.6172L66.9906 27.1484L67.4203 26.7969L67.4594 26.1328C67.9802 24.8047 68.5271 23.5286 69.1 22.3047C69.699 21.0807 70.3109 19.8307 70.9359 18.5547C71.1443 18.138 71.3396 17.7214 71.5219 17.3047C71.7302 16.888 71.9385 16.4714 72.1469 16.0547C72.1208 15.9766 72.1078 15.8854 72.1078 15.7812C72.1078 15.6771 72.1339 15.5599 72.1859 15.4297C72.4724 14.987 72.7068 14.5964 72.8891 14.2578C73.0714 13.8932 73.2536 13.5286 73.4359 13.1641C73.6443 12.7214 73.8526 12.2917 74.0609 11.875C74.2953 11.4583 74.5818 11.0286 74.9203 10.5859L75.5453 10.3125C75.6234 10.2865 75.7146 10.2604 75.8187 10.2344C75.9229 10.1823 76.0401 10.1562 76.1703 10.1562L76.7562 10.2344C77.4854 9.89583 78.1234 9.42708 78.6703 8.82812C79.2172 8.20312 79.7771 7.46094 80.35 6.60156L80.7406 6.05469L81.2484 6.36719C81.3786 6.44531 81.5609 6.52344 81.7953 6.60156C82.0297 6.65365 82.2771 6.71875 82.5375 6.79688C83.0062 6.90104 83.449 7.01823 83.8656 7.14844C84.2823 7.27865 84.6208 7.47396 84.8812 7.73438C85.0375 8.15104 85.1286 8.46354 85.1547 8.67188C85.1807 8.88021 85.2198 9.08854 85.2719 9.29688C85.35 9.73958 85.4151 10.1823 85.4672 10.625C85.5453 11.0677 85.5974 11.5625 85.6234 12.1094C85.7536 12.5521 85.8578 12.9948 85.9359 13.4375C86.0401 13.8542 86.1312 14.2839 86.2094 14.7266C86.3396 15.3516 86.4698 15.9635 86.6 16.5625C86.7302 17.1354 86.8995 17.6823 87.1078 18.2031C87.3161 18.2031 87.4464 18.2161 87.4984 18.2422C87.6286 18.1901 87.7589 18.151 87.8891 18.125C88.0453 18.099 88.2146 18.0729 88.3969 18.0469L88.8266 18.0078L88.9828 18.3984C89.0089 18.5286 89.1391 18.6589 89.3734 18.7891C89.712 18.8151 89.9594 18.8932 90.1156 19.0234C90.2719 19.1276 90.4151 19.2448 90.5453 19.375C90.6495 19.4792 90.7536 19.5573 90.8578 19.6094L91.4437 19.8438L91.1312 20.4297C90.8708 20.8984 90.4932 21.3542 89.9984 21.7969C89.5297 22.2135 88.9958 22.5651 88.3969 22.8516C88.4229 23.0078 88.4359 23.1641 88.4359 23.3203C88.462 23.4505 88.501 23.5938 88.5531 23.75C88.6312 24.1927 88.6964 24.6484 88.7484 25.1172C88.8005 25.5859 88.8005 26.0677 88.7484 26.5625L88.6703 26.7188ZM77.3812 19.9609C78.1625 19.9089 78.8656 19.8568 79.4906 19.8047C80.1417 19.7266 80.8578 19.6094 81.6391 19.4531C81.4568 18.6719 81.2615 17.8646 81.0531 17.0312C80.8448 16.1719 80.6234 15.3255 80.3891 14.4922L80.1547 14.8828C79.6339 15.4297 79.126 16.0417 78.6312 16.7188C78.1625 17.3958 77.7589 18.0339 77.4203 18.6328C77.2641 18.8672 77.1078 19.1016 76.9516 19.3359C76.7953 19.5703 76.6521 19.8047 76.5219 20.0391C76.6781 20.013 76.8214 20 76.9516 20C77.1078 20 77.251 19.987 77.3812 19.9609ZM93.2922 12.4219C93.4745 11.875 93.7609 11.4062 94.1516 11.0156C94.5682 10.625 95.0109 10.2995 95.4797 10.0391C95.9745 9.7526 96.4823 9.51823 97.0031 9.33594C97.524 9.15365 98.0188 8.9974 98.4875 8.86719C99.5292 8.42448 100.636 8.00781 101.808 7.61719C103.006 7.20052 104.217 6.83594 105.441 6.52344C106.691 6.21094 107.967 6.01562 109.269 5.9375C110.571 5.83333 111.938 5.98958 113.37 6.40625C113.448 6.66667 113.566 6.91406 113.722 7.14844C113.878 7.38281 114.034 7.61719 114.191 7.85156C114.373 8.08594 114.529 8.32031 114.659 8.55469C114.79 8.76302 114.868 8.98438 114.894 9.21875C115.154 9.45312 115.363 9.71354 115.519 10C115.675 10.2604 115.701 10.612 115.597 11.0547C115.336 11.263 115.076 11.4583 114.816 11.6406C114.581 11.7969 114.321 11.9401 114.034 12.0703C113.071 11.8359 112.094 11.7578 111.105 11.8359C110.115 11.9141 109.23 11.9792 108.448 12.0312C108.214 11.7969 107.928 11.6797 107.589 11.6797C107.277 11.6797 106.938 11.7318 106.573 11.8359C106.235 11.9401 105.883 12.0443 105.519 12.1484C105.18 12.2526 104.855 12.2786 104.542 12.2266C104.282 12.4349 103.956 12.5781 103.566 12.6562C103.201 12.7083 102.797 12.7604 102.355 12.8125C102.329 12.9427 102.355 13.0339 102.433 13.0859C102.511 13.112 102.524 13.1901 102.472 13.3203C102.628 13.5026 102.823 13.6328 103.058 13.7109C103.318 13.7891 103.579 13.8672 103.839 13.9453C104.126 14.0234 104.373 14.1276 104.581 14.2578C104.79 14.362 104.933 14.5443 105.011 14.8047C105.402 14.8047 105.74 14.8958 106.027 15.0781C106.313 15.2604 106.547 15.4818 106.73 15.7422C106.912 16.0026 107.042 16.2891 107.12 16.6016C107.224 16.888 107.277 17.1484 107.277 17.3828C107.355 17.5911 107.446 17.6823 107.55 17.6562C107.654 17.6302 107.771 17.6823 107.902 17.8125C107.98 18.151 108.175 18.5026 108.488 18.8672C108.8 19.2057 109.047 19.5833 109.23 20C109.282 20.651 109.321 21.237 109.347 21.7578C109.373 22.2526 109.282 22.7604 109.073 23.2812C108.683 24.2448 108.136 25.1042 107.433 25.8594C106.756 26.6146 105.974 27.2917 105.089 27.8906C104.23 28.4635 103.305 28.9583 102.316 29.375C101.326 29.7917 100.363 30.1432 99.425 30.4297C99.3208 30.4036 99.2167 30.4036 99.1125 30.4297C99.0083 30.4557 98.9823 30.3906 99.0344 30.2344C98.826 30.4167 98.5917 30.5339 98.3313 30.5859C98.0969 30.638 97.8365 30.651 97.55 30.625C97.2635 30.625 96.9641 30.612 96.6516 30.5859C96.3651 30.5599 96.0917 30.5729 95.8313 30.625C95.649 30.4427 95.4797 30.2604 95.3234 30.0781C95.1932 29.9219 95.0891 29.7135 95.0109 29.4531C94.8807 29.4531 94.8156 29.388 94.8156 29.2578C94.8417 29.1276 94.8026 29.0625 94.6984 29.0625C94.8547 28.8021 94.9198 28.6589 94.8938 28.6328C94.8938 28.5807 94.8547 28.5417 94.7766 28.5156C94.7245 28.4896 94.6724 28.4635 94.6203 28.4375C94.5682 28.3854 94.5552 28.3203 94.5813 28.2422C94.6854 28.0339 94.7245 27.7995 94.6984 27.5391C94.6724 27.2526 94.6464 26.9661 94.6203 26.6797C94.5943 26.3932 94.6073 26.1198 94.6594 25.8594C94.7375 25.599 94.9328 25.3906 95.2453 25.2344C96.1307 25.3385 96.9641 25.3125 97.7453 25.1562C98.5526 24.974 99.3078 24.7266 100.011 24.4141C100.714 24.1016 101.378 23.763 102.003 23.3984C102.654 23.0339 103.292 22.7083 103.917 22.4219C103.995 22.1875 104.099 21.9922 104.23 21.8359C104.386 21.6797 104.542 21.5365 104.698 21.4062C104.855 21.276 104.998 21.1328 105.128 20.9766C105.258 20.8203 105.349 20.625 105.402 20.3906C105.428 20.2083 105.376 20.1042 105.245 20.0781C105.141 20.026 105.089 19.9219 105.089 19.7656L104.659 19.6484C104.165 19.362 103.605 19.1276 102.98 18.9453C102.355 18.737 101.821 18.5156 101.378 18.2812C101.092 18.4375 100.818 18.4766 100.558 18.3984C100.323 18.3203 100.011 18.2422 99.6203 18.1641C98.7349 18.112 97.8755 18.0208 97.0422 17.8906C96.2349 17.7604 95.4536 17.526 94.6984 17.1875C94.6464 17.0573 94.5813 16.9401 94.5031 16.8359C94.425 16.7318 94.2818 16.7057 94.0734 16.7578C93.9172 16.5495 93.7609 16.3542 93.6047 16.1719C93.4484 15.9635 93.3052 15.7422 93.175 15.5078C93.2271 15.1953 93.2661 14.9349 93.2922 14.7266C93.3182 14.4922 93.2401 14.2708 93.0578 14.0625C93.162 13.724 93.2401 13.4505 93.2922 13.2422C93.3443 13.0339 93.3443 12.7604 93.2922 12.4219ZM124.203 3.125C124.203 3.35938 124.164 3.64583 124.086 3.98438C124.034 4.32292 123.982 4.66146 123.93 5C123.878 5.33854 123.865 5.65104 123.891 5.9375C123.917 6.19792 124.034 6.36719 124.242 6.44531C123.773 7.82552 123.448 8.98438 123.266 9.92188C123.109 10.8594 122.966 11.7578 122.836 12.6172C122.732 13.4505 122.589 14.3359 122.406 15.2734C122.224 16.2109 121.898 17.3568 121.43 18.7109C121.143 19.5443 120.792 20.1302 120.375 20.4688C119.958 20.7812 119.516 20.9375 119.047 20.9375C118.578 20.9375 118.096 20.8073 117.602 20.5469C117.107 20.2865 116.651 20 116.234 19.6875C116.156 19.1927 116.143 18.5938 116.195 17.8906C116.273 17.1615 116.365 16.4062 116.469 15.625C116.573 14.8438 116.677 14.1016 116.781 13.3984C116.885 12.6693 116.964 12.0573 117.016 11.5625C117.276 11.276 117.458 11.0417 117.562 10.8594C117.667 10.6771 117.732 10.4818 117.758 10.2734C117.81 10.0651 117.849 9.80469 117.875 9.49219C117.901 9.17969 117.966 8.73698 118.07 8.16406C118.122 7.8776 118.096 7.63021 117.992 7.42188C117.914 7.1875 117.901 6.96615 117.953 6.75781C118.005 6.65365 118.083 6.57552 118.188 6.52344C118.318 6.47135 118.396 6.38021 118.422 6.25C118.526 5.91146 118.552 5.65104 118.5 5.46875C118.448 5.26042 118.487 5.01302 118.617 4.72656C118.747 4.51823 118.904 4.19271 119.086 3.75C119.294 3.28125 119.372 2.79948 119.32 2.30469C119.555 2.1224 119.776 1.91406 119.984 1.67969C120.193 1.44531 120.401 1.23698 120.609 1.05469C120.844 0.846354 121.091 0.677083 121.352 0.546875C121.638 0.416667 121.977 0.351562 122.367 0.351562C122.576 0.638021 122.732 0.911458 122.836 1.17188C122.94 1.43229 123.031 1.67969 123.109 1.91406C123.214 2.14844 123.344 2.36979 123.5 2.57812C123.656 2.78646 123.891 2.96875 124.203 3.125ZM120.336 25.3516C120.388 25.5599 120.427 25.7552 120.453 25.9375C120.479 26.1198 120.505 26.3151 120.531 26.5234C120.375 27.0703 120.206 27.5651 120.023 28.0078C119.945 28.1901 119.893 28.3073 119.867 28.3594C119.841 28.4115 119.828 28.4505 119.828 28.4766C119.828 28.5026 119.841 28.5417 119.867 28.5938C119.893 28.6198 119.906 28.724 119.906 28.9062L119.711 29.375C119.581 29.5573 119.424 29.7005 119.242 29.8047C119.086 29.9089 118.917 30 118.734 30.0781C118.656 30.1302 118.565 30.1693 118.461 30.1953C118.383 30.2474 118.318 30.2995 118.266 30.3516L118.148 30.8203L117.602 30.8984C117.185 31.0026 116.807 31.0547 116.469 31.0547H116.039C115.727 30.7682 115.479 30.5469 115.297 30.3906C115.115 30.2344 114.906 30.0911 114.672 29.9609C114.385 29.4661 114.216 29.0365 114.164 28.6719C114.112 28.3333 114.047 28.112 113.969 28.0078L113.422 27.4609L113.891 27.1094L113.422 26.3672C113.734 26.1328 113.969 25.9635 114.125 25.8594C114.281 25.7552 114.411 25.651 114.516 25.5469C114.646 25.4167 114.776 25.2604 114.906 25.0781C115.036 24.8958 115.245 24.5964 115.531 24.1797L115.883 23.6719L116.352 23.9453C116.482 24.0234 116.716 24.1016 117.055 24.1797C117.419 24.2318 117.732 24.2839 117.992 24.3359C118.409 24.4661 118.812 24.5703 119.203 24.6484C119.62 24.7005 119.945 24.8307 120.18 25.0391L120.336 25.3516Z" fill="white"/>
</svg>
