<svg width="45" height="26" viewBox="0 0 45 26" fill="none" xmlns="http://www.w3.org/2000/svg">
<path d="M22.2266 6.21094C21.5755 6.21094 20.8724 6.26302 20.1172 6.36719C19.362 6.44531 18.6198 6.53646 17.8906 6.64062C17.3698 6.71875 16.862 6.78385 16.3672 6.83594C15.8984 6.88802 15.4688 6.92708 15.0781 6.95312C14.8958 7.52604 14.7135 8.03385 14.5312 8.47656C14.349 8.91927 14.1536 9.34896 13.9453 9.76562C13.737 10.2083 13.5417 10.6641 13.3594 11.1328C13.2031 11.5755 13.0469 12.0573 12.8906 12.5781C12.6302 12.9948 12.4089 13.3854 12.2266 13.75C12.0703 14.0885 11.9401 14.4792 11.8359 14.9219C11.5234 15.3125 11.2891 15.7292 11.1328 16.1719C10.9766 16.5885 10.8594 16.9531 10.7812 17.2656L10.625 17.7344C10.4688 17.8906 10.3776 18.0208 10.3516 18.125C10.3255 18.2031 10.2604 18.2812 10.1562 18.3594C10.1302 18.6458 10.0391 18.9323 9.88281 19.2188C9.83073 19.349 9.79167 19.4792 9.76562 19.6094C9.73958 19.7135 9.72656 19.7917 9.72656 19.8438C9.72656 20.1042 9.66146 20.2734 9.53125 20.3516C9.55729 20.4818 9.55729 20.625 9.53125 20.7812C9.50521 20.9115 9.47917 21.0417 9.45312 21.1719C9.375 21.4844 9.34896 21.7318 9.375 21.9141C9.45312 22.0182 9.51823 22.1094 9.57031 22.1875C9.64844 22.2656 9.70052 22.3698 9.72656 22.5C9.88281 22.6042 10 22.6693 10.0781 22.6953C10.1823 22.7734 10.3385 22.8646 10.5469 22.9688L10.8984 23.3594C11.0286 24.1146 10.9115 24.7135 10.5469 25.1562C10.1562 25.651 9.49219 25.8984 8.55469 25.8984H8.08594C7.95573 25.7682 7.8776 25.6641 7.85156 25.5859C7.64323 25.5078 7.47396 25.4427 7.34375 25.3906C7.21354 25.3385 7.09635 25.2344 6.99219 25.0781C6.65365 24.9219 6.38021 24.7917 6.17188 24.6875L5.82031 24.4922C5.82031 24.2057 5.82031 24.0495 5.82031 24.0234C5.63802 23.7891 5.49479 23.5286 5.39062 23.2422C5.3125 22.9557 5.2474 22.6693 5.19531 22.3828C5.14323 22.1484 5.07812 21.9271 5 21.7188C4.94792 21.5104 4.86979 21.3281 4.76562 21.1719C4.71354 19.6615 4.85677 18.3854 5.19531 17.3438C5.53385 16.3021 5.88542 15.2995 6.25 14.3359C6.45833 13.8151 6.66667 13.2943 6.875 12.7734C7.08333 12.2266 7.26562 11.6667 7.42188 11.0938L7.77344 10.7031C7.95573 10.2865 8.09896 9.94792 8.20312 9.6875C8.33333 9.40104 8.46354 9.11458 8.59375 8.82812C8.67188 8.64583 8.73698 8.47656 8.78906 8.32031C8.86719 8.13802 8.93229 7.98177 8.98438 7.85156C8.82812 7.85156 8.6849 7.86458 8.55469 7.89062C8.42448 7.89062 8.29427 7.90365 8.16406 7.92969C8.00781 7.95573 7.86458 7.98177 7.73438 8.00781C7.60417 8.00781 7.47396 8.00781 7.34375 8.00781C7.16146 8.00781 7.03125 7.99479 6.95312 7.96875C6.66667 8.09896 6.35417 8.16406 6.01562 8.16406H5.625C5.54688 8.16406 5.46875 8.16406 5.39062 8.16406C5.33854 8.13802 5.28646 8.125 5.23438 8.125C4.97396 8.125 4.76562 8.16406 4.60938 8.24219C4.29688 8.24219 3.9974 8.24219 3.71094 8.24219H3.32031C3.26823 8.24219 3.20312 8.25521 3.125 8.28125C3.04688 8.28125 2.98177 8.28125 2.92969 8.28125C2.7474 8.28125 2.55208 8.26823 2.34375 8.24219C2.13542 8.1901 1.91406 8.09896 1.67969 7.96875C1.36719 7.55208 1.15885 7.33073 1.05469 7.30469L0.703125 6.83594C0.677083 6.67969 0.638021 6.53646 0.585938 6.40625C0.533854 6.25 0.481771 6.08073 0.429688 5.89844C0.325521 5.63802 0.221354 5.36458 0.117188 5.07812C0.0390625 4.76562 0 4.40104 0 3.98438C0.0260417 3.77604 0.078125 3.61979 0.15625 3.51562C0.234375 3.41146 0.299479 3.32031 0.351562 3.24219L0.46875 2.65625L0.976562 2.69531H2.07031C2.90365 2.69531 3.75 2.66927 4.60938 2.61719C5.46875 2.53906 6.35417 2.46094 7.26562 2.38281C7.78646 2.33073 8.30729 2.27865 8.82812 2.22656C9.375 2.17448 9.9349 2.1224 10.5078 2.07031C10.612 1.83594 10.7161 1.61458 10.8203 1.40625L11.2109 1.21094C11.6797 1.1849 12.0052 1.25 12.1875 1.40625C12.3958 1.53646 12.5651 1.66667 12.6953 1.79688C13.2682 1.74479 13.8411 1.69271 14.4141 1.64062C15.013 1.5625 15.612 1.47135 16.2109 1.36719C17.0964 1.23698 17.9818 1.11979 18.8672 1.01562C19.7786 0.911458 20.651 0.859375 21.4844 0.859375C21.849 0.859375 22.2005 0.872396 22.5391 0.898438C22.8776 0.924479 23.1901 0.963542 23.4766 1.01562L23.8672 1.28906C23.9453 1.44531 24.0495 1.58854 24.1797 1.71875C24.3359 1.84896 24.4922 1.97917 24.6484 2.10938C24.9609 2.39583 25.2734 2.73438 25.5859 3.125C25.8984 3.51562 26.0156 4.08854 25.9375 4.84375C25.7292 5.15625 25.5729 5.33854 25.4688 5.39062L25.1172 5.85938L24.7266 5.82031C24.5703 5.82031 24.4271 5.84635 24.2969 5.89844C24.1667 5.92448 24.0365 5.96354 23.9062 6.01562C23.8021 6.06771 23.6979 6.11979 23.5938 6.17188C23.4896 6.19792 23.3724 6.22396 23.2422 6.25C23.0078 6.25 22.8125 6.25 22.6562 6.25C22.526 6.22396 22.3828 6.21094 22.2266 6.21094ZM22.0047 7.42188C22.187 6.875 22.4734 6.40625 22.8641 6.01562C23.2807 5.625 23.7234 5.29948 24.1922 5.03906C24.687 4.7526 25.1948 4.51823 25.7156 4.33594C26.2365 4.15365 26.7313 3.9974 27.2 3.86719C28.2417 3.42448 29.3484 3.00781 30.5203 2.61719C31.7182 2.20052 32.9292 1.83594 34.1531 1.52344C35.4031 1.21094 36.6792 1.01562 37.9813 0.9375C39.2833 0.833333 40.6505 0.989583 42.0828 1.40625C42.1609 1.66667 42.2781 1.91406 42.4344 2.14844C42.5906 2.38281 42.7469 2.61719 42.9031 2.85156C43.0854 3.08594 43.2417 3.32031 43.3719 3.55469C43.5021 3.76302 43.5802 3.98438 43.6063 4.21875C43.8667 4.45312 44.075 4.71354 44.2313 5C44.3875 5.26042 44.4135 5.61198 44.3094 6.05469C44.049 6.26302 43.7885 6.45833 43.5281 6.64062C43.2938 6.79688 43.0333 6.9401 42.7469 7.07031C41.7833 6.83594 40.8068 6.75781 39.8172 6.83594C38.8276 6.91406 37.9422 6.97917 37.1609 7.03125C36.9266 6.79688 36.6401 6.67969 36.3016 6.67969C35.9891 6.67969 35.6505 6.73177 35.2859 6.83594C34.9474 6.9401 34.5958 7.04427 34.2313 7.14844C33.8927 7.2526 33.5672 7.27865 33.2547 7.22656C32.9943 7.4349 32.6688 7.57812 32.2781 7.65625C31.9135 7.70833 31.5099 7.76042 31.0672 7.8125C31.0411 7.94271 31.0672 8.03385 31.1453 8.08594C31.2234 8.11198 31.2365 8.1901 31.1844 8.32031C31.3406 8.5026 31.5359 8.63281 31.7703 8.71094C32.0307 8.78906 32.2911 8.86719 32.5516 8.94531C32.838 9.02344 33.0854 9.1276 33.2938 9.25781C33.5021 9.36198 33.6453 9.54427 33.7234 9.80469C34.1141 9.80469 34.4526 9.89583 34.7391 10.0781C35.0255 10.2604 35.2599 10.4818 35.4422 10.7422C35.6245 11.0026 35.7547 11.2891 35.8328 11.6016C35.937 11.888 35.9891 12.1484 35.9891 12.3828C36.0672 12.5911 36.1583 12.6823 36.2625 12.6562C36.3667 12.6302 36.4839 12.6823 36.6141 12.8125C36.6922 13.151 36.8875 13.5026 37.2 13.8672C37.5125 14.2057 37.7599 14.5833 37.9422 15C37.9943 15.651 38.0333 16.237 38.0594 16.7578C38.0854 17.2526 37.9943 17.7604 37.7859 18.2812C37.3953 19.2448 36.8484 20.1042 36.1453 20.8594C35.4682 21.6146 34.687 22.2917 33.8016 22.8906C32.9422 23.4635 32.0177 23.9583 31.0281 24.375C30.0385 24.7917 29.075 25.1432 28.1375 25.4297C28.0333 25.4036 27.9292 25.4036 27.825 25.4297C27.7208 25.4557 27.6948 25.3906 27.7469 25.2344C27.5385 25.4167 27.3042 25.5339 27.0438 25.5859C26.8094 25.638 26.549 25.651 26.2625 25.625C25.976 25.625 25.6766 25.612 25.3641 25.5859C25.0776 25.5599 24.8042 25.5729 24.5438 25.625C24.3615 25.4427 24.1922 25.2604 24.0359 25.0781C23.9057 24.9219 23.8016 24.7135 23.7234 24.4531C23.5932 24.4531 23.5281 24.388 23.5281 24.2578C23.5542 24.1276 23.5151 24.0625 23.4109 24.0625C23.5672 23.8021 23.6323 23.6589 23.6063 23.6328C23.6063 23.5807 23.5672 23.5417 23.4891 23.5156C23.437 23.4896 23.3849 23.4635 23.3328 23.4375C23.2807 23.3854 23.2677 23.3203 23.2938 23.2422C23.3979 23.0339 23.437 22.7995 23.4109 22.5391C23.3849 22.2526 23.3589 21.9661 23.3328 21.6797C23.3068 21.3932 23.3198 21.1198 23.3719 20.8594C23.45 20.599 23.6453 20.3906 23.9578 20.2344C24.8432 20.3385 25.6766 20.3125 26.4578 20.1562C27.2651 19.974 28.0203 19.7266 28.7234 19.4141C29.4266 19.1016 30.0906 18.763 30.7156 18.3984C31.3667 18.0339 32.0047 17.7083 32.6297 17.4219C32.7078 17.1875 32.812 16.9922 32.9422 16.8359C33.0984 16.6797 33.2547 16.5365 33.4109 16.4062C33.5672 16.276 33.7104 16.1328 33.8406 15.9766C33.9708 15.8203 34.062 15.625 34.1141 15.3906C34.1401 15.2083 34.088 15.1042 33.9578 15.0781C33.8536 15.026 33.8016 14.9219 33.8016 14.7656L33.3719 14.6484C32.8771 14.362 32.3172 14.1276 31.6922 13.9453C31.0672 13.737 30.5333 13.5156 30.0906 13.2812C29.8042 13.4375 29.5307 13.4766 29.2703 13.3984C29.0359 13.3203 28.7234 13.2422 28.3328 13.1641C27.4474 13.112 26.588 13.0208 25.7547 12.8906C24.9474 12.7604 24.1661 12.526 23.4109 12.1875C23.3589 12.0573 23.2938 11.9401 23.2156 11.8359C23.1375 11.7318 22.9943 11.7057 22.7859 11.7578C22.6297 11.5495 22.4734 11.3542 22.3172 11.1719C22.1609 10.9635 22.0177 10.7422 21.8875 10.5078C21.9396 10.1953 21.9786 9.9349 22.0047 9.72656C22.0307 9.49219 21.9526 9.27083 21.7703 9.0625C21.8745 8.72396 21.9526 8.45052 22.0047 8.24219C22.0568 8.03385 22.0568 7.76042 22.0047 7.42188Z" fill="white"/>
</svg>
